<svg width="143" height="34" viewBox="0 0 143 34" fill="none" xmlns="http://www.w3.org/2000/svg">
<path d="M39.825 17.025C39.825 15.625 40.1 14.3833 40.65 13.3C41.2167 12.2167 41.975 11.3833 42.925 10.8C43.8917 10.2167 44.9667 9.925 46.15 9.925C47.1833 9.925 48.0833 10.1333 48.85 10.55C49.6333 10.9667 50.2583 11.4917 50.725 12.125V10.15H54.25V24H50.725V21.975C50.275 22.625 49.65 23.1667 48.85 23.6C48.0667 24.0167 47.1583 24.225 46.125 24.225C44.9583 24.225 43.8917 23.925 42.925 23.325C41.975 22.725 41.2167 21.8833 40.65 20.8C40.1 19.7 39.825 18.4417 39.825 17.025ZM50.725 17.075C50.725 16.225 50.5583 15.5 50.225 14.9C49.8917 14.2833 49.4417 13.8167 48.875 13.5C48.3083 13.1667 47.7 13 47.05 13C46.4 13 45.8 13.1583 45.25 13.475C44.7 13.7917 44.25 14.2583 43.9 14.875C43.5667 15.475 43.4 16.1917 43.4 17.025C43.4 17.8583 43.5667 18.5917 43.9 19.225C44.25 19.8417 44.7 20.3167 45.25 20.65C45.8167 20.9833 46.4167 21.15 47.05 21.15C47.7 21.15 48.3083 20.9917 48.875 20.675C49.4417 20.3417 49.8917 19.875 50.225 19.275C50.5583 18.6583 50.725 17.925 50.725 17.075ZM59.4434 8.5C58.8267 8.5 58.31 8.30833 57.8934 7.925C57.4934 7.525 57.2934 7.03333 57.2934 6.45C57.2934 5.86667 57.4934 5.38333 57.8934 5C58.31 4.6 58.8267 4.4 59.4434 4.4C60.06 4.4 60.5684 4.6 60.9684 5C61.385 5.38333 61.5934 5.86667 61.5934 6.45C61.5934 7.03333 61.385 7.525 60.9684 7.925C60.5684 8.30833 60.06 8.5 59.4434 8.5ZM61.1684 10.15V24H57.6684V10.15H61.1684ZM68.1264 12.3C68.5764 11.5667 69.1597 10.9917 69.8764 10.575C70.6097 10.1583 71.443 9.95 72.3764 9.95V13.625H71.4514C70.3514 13.625 69.518 13.8833 68.9514 14.4C68.4014 14.9167 68.1264 15.8167 68.1264 17.1V24H64.6264V10.15H68.1264V12.3ZM73.8338 17.025C73.8338 15.625 74.1088 14.3833 74.6588 13.3C75.2255 12.2167 75.9921 11.3833 76.9588 10.8C77.9255 10.2167 79.0005 9.925 80.1838 9.925C81.0838 9.925 81.9421 10.125 82.7588 10.525C83.5755 10.9083 84.2255 11.425 84.7088 12.075V5.5H88.2588V24H84.7088V21.95C84.2755 22.6333 83.6671 23.1833 82.8838 23.6C82.1005 24.0167 81.1921 24.225 80.1588 24.225C78.9921 24.225 77.9255 23.925 76.9588 23.325C75.9921 22.725 75.2255 21.8833 74.6588 20.8C74.1088 19.7 73.8338 18.4417 73.8338 17.025ZM84.7338 17.075C84.7338 16.225 84.5671 15.5 84.2338 14.9C83.9005 14.2833 83.4505 13.8167 82.8838 13.5C82.3171 13.1667 81.7088 13 81.0588 13C80.4088 13 79.8088 13.1583 79.2588 13.475C78.7088 13.7917 78.2588 14.2583 77.9088 14.875C77.5755 15.475 77.4088 16.1917 77.4088 17.025C77.4088 17.8583 77.5755 18.5917 77.9088 19.225C78.2588 19.8417 78.7088 20.3167 79.2588 20.65C79.8255 20.9833 80.4255 21.15 81.0588 21.15C81.7088 21.15 82.3171 20.9917 82.8838 20.675C83.4505 20.3417 83.9005 19.875 84.2338 19.275C84.5671 18.6583 84.7338 17.925 84.7338 17.075ZM97.8271 24.225C96.4938 24.225 95.2938 23.9333 94.2271 23.35C93.1605 22.75 92.3188 21.9083 91.7021 20.825C91.1021 19.7417 90.8021 18.4917 90.8021 17.075C90.8021 15.6583 91.1105 14.4083 91.7271 13.325C92.3605 12.2417 93.2188 11.4083 94.3021 10.825C95.3855 10.225 96.5938 9.925 97.9271 9.925C99.2605 9.925 100.469 10.225 101.552 10.825C102.635 11.4083 103.485 12.2417 104.102 13.325C104.735 14.4083 105.052 15.6583 105.052 17.075C105.052 18.4917 104.727 19.7417 104.077 20.825C103.444 21.9083 102.577 22.75 101.477 23.35C100.394 23.9333 99.1771 24.225 97.8271 24.225ZM97.8271 21.175C98.4605 21.175 99.0521 21.025 99.6021 20.725C100.169 20.4083 100.619 19.9417 100.952 19.325C101.285 18.7083 101.452 17.9583 101.452 17.075C101.452 15.7583 101.102 14.75 100.402 14.05C99.7188 13.3333 98.8771 12.975 97.8771 12.975C96.8771 12.975 96.0355 13.3333 95.3521 14.05C94.6855 14.75 94.3521 15.7583 94.3521 17.075C94.3521 18.3917 94.6771 19.4083 95.3271 20.125C95.9938 20.825 96.8271 21.175 97.8271 21.175ZM111.12 12.3C111.57 11.5667 112.153 10.9917 112.87 10.575C113.603 10.1583 114.436 9.95 115.37 9.95V13.625H114.445C113.345 13.625 112.511 13.8833 111.945 14.4C111.395 14.9167 111.12 15.8167 111.12 17.1V24H107.62V10.15H111.12V12.3ZM134.927 9.95C136.627 9.95 137.994 10.475 139.027 11.525C140.077 12.5583 140.602 14.0083 140.602 15.875V24H137.102V16.35C137.102 15.2667 136.827 14.4417 136.277 13.875C135.727 13.2917 134.977 13 134.027 13C133.077 13 132.319 13.2917 131.752 13.875C131.202 14.4417 130.927 15.2667 130.927 16.35V24H127.427V16.35C127.427 15.2667 127.152 14.4417 126.602 13.875C126.052 13.2917 125.302 13 124.352 13C123.385 13 122.619 13.2917 122.052 13.875C121.502 14.4417 121.227 15.2667 121.227 16.35V24H117.727V10.15H121.227V11.825C121.677 11.2417 122.252 10.7833 122.952 10.45C123.669 10.1167 124.452 9.95 125.302 9.95C126.385 9.95 127.352 10.1833 128.202 10.65C129.052 11.1 129.71 11.75 130.177 12.6C130.627 11.8 131.277 11.1583 132.127 10.675C132.994 10.1917 133.927 9.95 134.927 9.95Z" fill="#FF5A5F"/>
<path d="M16.9762 23.0478C15.2422 20.8718 14.2222 18.9644 13.8822 17.3324C13.5422 16.0064 13.6782 14.9524 14.2562 14.1704C14.8682 13.2524 15.7862 12.8104 16.9762 12.8104C18.1662 12.8104 19.0842 13.2524 19.6962 14.1704C20.2742 14.9524 20.4102 16.0064 20.0702 17.3324C19.6962 18.9984 18.6762 20.9024 16.9762 23.0478ZM29.291 24.5098C29.053 26.1078 27.965 27.4338 26.469 28.0798C23.579 29.3378 20.7196 27.3318 18.2716 24.6118C22.321 19.5424 23.069 15.5984 21.3316 13.045C20.3116 11.583 18.8496 10.869 16.9762 10.869C13.2022 10.869 11.1248 14.065 11.9408 17.7744C12.4168 19.7804 13.6748 22.0618 15.6808 24.6118C14.4228 26.0058 13.2328 26.9918 12.1788 27.6038C11.3628 28.0458 10.5808 28.3178 9.8328 28.3858C6.3988 28.8958 3.70939 25.5638 4.93339 22.1264C5.10339 21.6844 5.4434 20.8684 6.02139 19.6104L6.0554 19.5424C7.9254 15.459 10.2068 10.835 12.8248 5.69755L12.8928 5.52755L13.6408 4.09955C14.2188 3.04555 14.4568 2.56955 15.3748 1.99155C15.8168 1.71955 16.3608 1.58355 16.9728 1.58355C18.1968 1.58355 19.1488 2.29755 19.5568 2.87555C19.7608 3.18155 19.9988 3.58955 20.3048 4.09955L21.0188 5.49355L21.1208 5.69755C23.7388 10.835 26.0202 15.459 27.8902 19.5424L27.9242 19.5764L28.6042 21.1404L29.0122 22.1264C29.325 22.9118 29.393 23.6938 29.291 24.5098ZM30.855 21.4464C30.617 20.6984 30.209 19.8144 29.699 18.7604V18.7264C27.285 13.589 25.0376 8.96495 22.8956 4.81355L22.7596 4.60955C21.2296 1.48155 20.1416 -0.391846 16.9762 -0.391846C13.8482 -0.391846 12.5188 1.78415 11.1588 4.60955L11.0568 4.81355C8.9148 8.96495 6.66739 13.589 4.25339 18.7264V18.7944L3.53939 20.3584C3.26739 21.0044 3.13139 21.3444 3.09739 21.4464C1.36339 26.2098 4.9334 30.3918 9.2548 30.3918C9.2888 30.3918 9.4248 30.3918 9.5948 30.3578H10.0708C12.3148 30.0858 14.6302 28.6578 16.9762 26.1044C19.3222 28.6544 21.6376 30.0858 23.8816 30.3578H24.3576C24.5276 30.3918 24.6636 30.3918 24.6976 30.3918C29.019 30.3952 32.589 26.2098 30.855 21.4464Z" fill="#FF5A5F"/>
</svg>
